<mxfile host="app.diagrams.net" agent="Mozilla/5.0 (Macintosh; Intel Mac OS X 10_15_7) AppleWebKit/537.36 (KHTML, like Gecko) Chrome/138.0.0.0 Safari/537.36" version="28.0.4">
  <diagram id="C5RBs43oDa-KdzZeNtuy" name="Page-1">
    <mxGraphModel dx="705" dy="403" grid="1" gridSize="10" guides="1" tooltips="1" connect="1" arrows="1" fold="1" page="1" pageScale="1" pageWidth="827" pageHeight="1169" math="0" shadow="0">
      <root>
        <mxCell id="WIyWlLk6GJQsqaUBKTNV-0" />
        <mxCell id="WIyWlLk6GJQsqaUBKTNV-1" parent="WIyWlLk6GJQsqaUBKTNV-0" />
        <mxCell id="WIyWlLk6GJQsqaUBKTNV-2" value="" style="rounded=0;html=1;jettySize=auto;orthogonalLoop=1;fontSize=11;endArrow=block;endFill=0;endSize=8;strokeWidth=1;shadow=0;labelBackgroundColor=none;edgeStyle=orthogonalEdgeStyle;" parent="WIyWlLk6GJQsqaUBKTNV-1" source="WIyWlLk6GJQsqaUBKTNV-3" target="WIyWlLk6GJQsqaUBKTNV-6" edge="1">
          <mxGeometry relative="1" as="geometry" />
        </mxCell>
        <mxCell id="WIyWlLk6GJQsqaUBKTNV-3" value="Lamp doesn&#39;t work" style="rounded=1;whiteSpace=wrap;html=1;fontSize=12;glass=0;strokeWidth=1;shadow=0;" parent="WIyWlLk6GJQsqaUBKTNV-1" vertex="1">
          <mxGeometry y="120" width="120" height="40" as="geometry" />
        </mxCell>
        <mxCell id="WIyWlLk6GJQsqaUBKTNV-4" value="Yes" style="rounded=0;html=1;jettySize=auto;orthogonalLoop=1;fontSize=11;endArrow=block;endFill=0;endSize=8;strokeWidth=1;shadow=0;labelBackgroundColor=none;edgeStyle=orthogonalEdgeStyle;" parent="WIyWlLk6GJQsqaUBKTNV-1" source="WIyWlLk6GJQsqaUBKTNV-6" target="WIyWlLk6GJQsqaUBKTNV-10" edge="1">
          <mxGeometry y="20" relative="1" as="geometry">
            <mxPoint as="offset" />
          </mxGeometry>
        </mxCell>
        <mxCell id="WIyWlLk6GJQsqaUBKTNV-5" value="No" style="edgeStyle=orthogonalEdgeStyle;rounded=0;html=1;jettySize=auto;orthogonalLoop=1;fontSize=11;endArrow=block;endFill=0;endSize=8;strokeWidth=1;shadow=0;labelBackgroundColor=none;" parent="WIyWlLk6GJQsqaUBKTNV-1" source="WIyWlLk6GJQsqaUBKTNV-6" target="WIyWlLk6GJQsqaUBKTNV-7" edge="1">
          <mxGeometry y="10" relative="1" as="geometry">
            <mxPoint as="offset" />
          </mxGeometry>
        </mxCell>
        <mxCell id="WIyWlLk6GJQsqaUBKTNV-6" value="Lamp&lt;br&gt;plugged in?" style="rhombus;whiteSpace=wrap;html=1;shadow=0;fontFamily=Helvetica;fontSize=12;align=center;strokeWidth=1;spacing=6;spacingTop=-4;" parent="WIyWlLk6GJQsqaUBKTNV-1" vertex="1">
          <mxGeometry x="10" y="210" width="100" height="80" as="geometry" />
        </mxCell>
        <mxCell id="WIyWlLk6GJQsqaUBKTNV-7" value="Plug in lamp" style="rounded=1;whiteSpace=wrap;html=1;fontSize=12;glass=0;strokeWidth=1;shadow=0;" parent="WIyWlLk6GJQsqaUBKTNV-1" vertex="1">
          <mxGeometry x="160" y="230" width="120" height="40" as="geometry" />
        </mxCell>
        <mxCell id="WIyWlLk6GJQsqaUBKTNV-8" value="No" style="rounded=0;html=1;jettySize=auto;orthogonalLoop=1;fontSize=11;endArrow=block;endFill=0;endSize=8;strokeWidth=1;shadow=0;labelBackgroundColor=none;edgeStyle=orthogonalEdgeStyle;" parent="WIyWlLk6GJQsqaUBKTNV-1" source="WIyWlLk6GJQsqaUBKTNV-10" target="WIyWlLk6GJQsqaUBKTNV-11" edge="1">
          <mxGeometry x="0.3333" y="20" relative="1" as="geometry">
            <mxPoint as="offset" />
          </mxGeometry>
        </mxCell>
        <mxCell id="WIyWlLk6GJQsqaUBKTNV-9" value="Yes" style="edgeStyle=orthogonalEdgeStyle;rounded=0;html=1;jettySize=auto;orthogonalLoop=1;fontSize=11;endArrow=block;endFill=0;endSize=8;strokeWidth=1;shadow=0;labelBackgroundColor=none;" parent="WIyWlLk6GJQsqaUBKTNV-1" source="WIyWlLk6GJQsqaUBKTNV-10" target="WIyWlLk6GJQsqaUBKTNV-12" edge="1">
          <mxGeometry y="10" relative="1" as="geometry">
            <mxPoint as="offset" />
          </mxGeometry>
        </mxCell>
        <mxCell id="WIyWlLk6GJQsqaUBKTNV-10" value="Bulb&lt;br&gt;burned out?" style="rhombus;whiteSpace=wrap;html=1;shadow=0;fontFamily=Helvetica;fontSize=12;align=center;strokeWidth=1;spacing=6;spacingTop=-4;" parent="WIyWlLk6GJQsqaUBKTNV-1" vertex="1">
          <mxGeometry x="10" y="330" width="100" height="80" as="geometry" />
        </mxCell>
        <mxCell id="WIyWlLk6GJQsqaUBKTNV-11" value="Repair Lamp" style="rounded=1;whiteSpace=wrap;html=1;fontSize=12;glass=0;strokeWidth=1;shadow=0;" parent="WIyWlLk6GJQsqaUBKTNV-1" vertex="1">
          <mxGeometry y="470" width="120" height="40" as="geometry" />
        </mxCell>
        <mxCell id="WIyWlLk6GJQsqaUBKTNV-12" value="Replace Bulb" style="rounded=1;whiteSpace=wrap;html=1;fontSize=12;glass=0;strokeWidth=1;shadow=0;" parent="WIyWlLk6GJQsqaUBKTNV-1" vertex="1">
          <mxGeometry x="160" y="350" width="120" height="40" as="geometry" />
        </mxCell>
        <mxCell id="rNBqGbRogVpqSaDtOh2h-4" value="XVI Translate Flow" style="swimlane;childLayout=stackLayout;resizeParent=1;resizeParentMax=0;startSize=20;html=1;" vertex="1" parent="WIyWlLk6GJQsqaUBKTNV-1">
          <mxGeometry x="450.00000000000045" y="120" width="500" height="480" as="geometry" />
        </mxCell>
        <mxCell id="rNBqGbRogVpqSaDtOh2h-5" value="Iframe Component" style="swimlane;startSize=20;html=1;" vertex="1" parent="rNBqGbRogVpqSaDtOh2h-4">
          <mxGeometry y="20" width="140" height="460" as="geometry" />
        </mxCell>
        <mxCell id="rNBqGbRogVpqSaDtOh2h-16" style="edgeStyle=orthogonalEdgeStyle;rounded=0;orthogonalLoop=1;jettySize=auto;html=1;entryX=0.5;entryY=0;entryDx=0;entryDy=0;" edge="1" parent="rNBqGbRogVpqSaDtOh2h-5" source="rNBqGbRogVpqSaDtOh2h-11" target="rNBqGbRogVpqSaDtOh2h-15">
          <mxGeometry relative="1" as="geometry" />
        </mxCell>
        <mxCell id="rNBqGbRogVpqSaDtOh2h-11" value="Parse Language&lt;div&gt;from params(Portal)&lt;/div&gt;" style="rounded=1;whiteSpace=wrap;html=1;fontSize=12;glass=0;strokeWidth=1;shadow=0;" vertex="1" parent="rNBqGbRogVpqSaDtOh2h-5">
          <mxGeometry x="9.999999999999545" y="90" width="120" height="40" as="geometry" />
        </mxCell>
        <mxCell id="rNBqGbRogVpqSaDtOh2h-15" value="Store language to Redux" style="rounded=1;whiteSpace=wrap;html=1;fontSize=12;glass=0;strokeWidth=1;shadow=0;" vertex="1" parent="rNBqGbRogVpqSaDtOh2h-5">
          <mxGeometry x="9.999999999999545" y="180" width="120" height="40" as="geometry" />
        </mxCell>
        <mxCell id="rNBqGbRogVpqSaDtOh2h-6" value="Translation Graud" style="swimlane;startSize=20;html=1;" vertex="1" parent="rNBqGbRogVpqSaDtOh2h-4">
          <mxGeometry x="140" y="20" width="130" height="460" as="geometry" />
        </mxCell>
        <mxCell id="rNBqGbRogVpqSaDtOh2h-20" style="edgeStyle=orthogonalEdgeStyle;rounded=0;orthogonalLoop=1;jettySize=auto;html=1;exitX=0.5;exitY=1;exitDx=0;exitDy=0;" edge="1" parent="rNBqGbRogVpqSaDtOh2h-6" source="rNBqGbRogVpqSaDtOh2h-17" target="rNBqGbRogVpqSaDtOh2h-19">
          <mxGeometry relative="1" as="geometry" />
        </mxCell>
        <mxCell id="rNBqGbRogVpqSaDtOh2h-17" value="Wait Location Initialized" style="rounded=1;whiteSpace=wrap;html=1;fontSize=12;glass=0;strokeWidth=1;shadow=0;" vertex="1" parent="rNBqGbRogVpqSaDtOh2h-6">
          <mxGeometry x="4.999999999999545" y="90" width="120" height="40" as="geometry" />
        </mxCell>
        <mxCell id="rNBqGbRogVpqSaDtOh2h-19" value="Wait App Started" style="rounded=1;whiteSpace=wrap;html=1;fontSize=12;glass=0;strokeWidth=1;shadow=0;" vertex="1" parent="rNBqGbRogVpqSaDtOh2h-6">
          <mxGeometry x="4.999999999999545" y="180" width="120" height="40" as="geometry" />
        </mxCell>
        <mxCell id="rNBqGbRogVpqSaDtOh2h-21" value="" style="rounded=1;whiteSpace=wrap;html=1;fontSize=12;glass=0;strokeWidth=1;shadow=0;" vertex="1" parent="rNBqGbRogVpqSaDtOh2h-6">
          <mxGeometry x="4.999999999999545" y="270" width="120" height="40" as="geometry" />
        </mxCell>
        <mxCell id="rNBqGbRogVpqSaDtOh2h-7" value="Translation Service" style="swimlane;startSize=20;html=1;" vertex="1" parent="rNBqGbRogVpqSaDtOh2h-4">
          <mxGeometry x="270" y="20" width="230" height="460" as="geometry" />
        </mxCell>
        <mxCell id="rNBqGbRogVpqSaDtOh2h-27" style="edgeStyle=orthogonalEdgeStyle;rounded=0;orthogonalLoop=1;jettySize=auto;html=1;exitX=0.5;exitY=1;exitDx=0;exitDy=0;" edge="1" parent="rNBqGbRogVpqSaDtOh2h-7" source="rNBqGbRogVpqSaDtOh2h-25" target="rNBqGbRogVpqSaDtOh2h-26">
          <mxGeometry relative="1" as="geometry" />
        </mxCell>
        <mxCell id="rNBqGbRogVpqSaDtOh2h-25" value="Get App Name&lt;div&gt;(ENV: CROWDIN_APP_NAME)&lt;/div&gt;" style="rounded=1;whiteSpace=wrap;html=1;fontSize=12;glass=0;strokeWidth=1;shadow=0;" vertex="1" parent="rNBqGbRogVpqSaDtOh2h-7">
          <mxGeometry x="25" y="182.5" width="180" height="35" as="geometry" />
        </mxCell>
        <mxCell id="rNBqGbRogVpqSaDtOh2h-30" style="edgeStyle=orthogonalEdgeStyle;rounded=0;orthogonalLoop=1;jettySize=auto;html=1;exitX=0.5;exitY=1;exitDx=0;exitDy=0;entryX=0.5;entryY=0;entryDx=0;entryDy=0;" edge="1" parent="rNBqGbRogVpqSaDtOh2h-7" source="rNBqGbRogVpqSaDtOh2h-26" target="rNBqGbRogVpqSaDtOh2h-29">
          <mxGeometry relative="1" as="geometry" />
        </mxCell>
        <mxCell id="rNBqGbRogVpqSaDtOh2h-26" value="Get version&lt;div&gt;(ENV: version)&lt;/div&gt;" style="rounded=1;whiteSpace=wrap;html=1;fontSize=12;glass=0;strokeWidth=1;shadow=0;" vertex="1" parent="rNBqGbRogVpqSaDtOh2h-7">
          <mxGeometry x="54.999999999999545" y="270" width="120" height="40" as="geometry" />
        </mxCell>
        <mxCell id="rNBqGbRogVpqSaDtOh2h-29" value="Get Language&lt;div&gt;from Redux&lt;/div&gt;" style="rounded=1;whiteSpace=wrap;html=1;fontSize=12;glass=0;strokeWidth=1;shadow=0;" vertex="1" parent="rNBqGbRogVpqSaDtOh2h-7">
          <mxGeometry x="54.999999999999545" y="360" width="120" height="40" as="geometry" />
        </mxCell>
        <mxCell id="rNBqGbRogVpqSaDtOh2h-28" style="edgeStyle=orthogonalEdgeStyle;rounded=0;orthogonalLoop=1;jettySize=auto;html=1;exitX=1;exitY=0.5;exitDx=0;exitDy=0;entryX=0;entryY=0.5;entryDx=0;entryDy=0;" edge="1" parent="rNBqGbRogVpqSaDtOh2h-4" source="rNBqGbRogVpqSaDtOh2h-19" target="rNBqGbRogVpqSaDtOh2h-25">
          <mxGeometry relative="1" as="geometry" />
        </mxCell>
        <mxCell id="rNBqGbRogVpqSaDtOh2h-10" value="" style="edgeStyle=orthogonalEdgeStyle;rounded=0;orthogonalLoop=1;jettySize=auto;html=1;entryX=0.5;entryY=0;entryDx=0;entryDy=0;" edge="1" parent="WIyWlLk6GJQsqaUBKTNV-1" source="rNBqGbRogVpqSaDtOh2h-8" target="rNBqGbRogVpqSaDtOh2h-11">
          <mxGeometry relative="1" as="geometry">
            <mxPoint x="460" y="200" as="targetPoint" />
          </mxGeometry>
        </mxCell>
        <mxCell id="rNBqGbRogVpqSaDtOh2h-18" style="edgeStyle=orthogonalEdgeStyle;rounded=0;orthogonalLoop=1;jettySize=auto;html=1;exitX=1;exitY=0.5;exitDx=0;exitDy=0;" edge="1" parent="WIyWlLk6GJQsqaUBKTNV-1" source="rNBqGbRogVpqSaDtOh2h-8" target="rNBqGbRogVpqSaDtOh2h-17">
          <mxGeometry relative="1" as="geometry" />
        </mxCell>
        <mxCell id="rNBqGbRogVpqSaDtOh2h-8" value="Start" style="rounded=1;whiteSpace=wrap;html=1;fontSize=12;glass=0;strokeWidth=1;shadow=0;" vertex="1" parent="WIyWlLk6GJQsqaUBKTNV-1">
          <mxGeometry x="270" y="180" width="120" height="40" as="geometry" />
        </mxCell>
      </root>
    </mxGraphModel>
  </diagram>
</mxfile>
